# Blender v2.78 (sub 0) OBJ File: 'big-room_3-exit.blend'
# www.blender.org
mtllib big-room_3-exit.mtl
o Cube.007_Cube.008
v 5.000000 0.500000 5.000000
v 5.000000 5.500000 5.000000
v 5.000000 5.500000 4.500000
v 2.000000 0.500000 4.500000
v 2.000000 5.500000 4.500000
v 5.000000 0.500000 4.500000
v 2.000000 5.500000 5.000000
v 2.000000 0.500000 5.000000
vn 0.0000 1.0000 0.0000
vn 0.0000 -1.0000 0.0000
vn 0.0000 0.0000 1.0000
vn 1.0000 0.0000 0.0000
vn 0.0000 0.0000 -1.0000
vn -1.0000 0.0000 0.0000
usemtl None
s off
f 2//1 3//1 5//1 7//1
f 6//2 8//2 4//2
f 2//3 8//3 1//3
f 3//4 2//4 1//4 6//4
f 6//2 1//2 8//2
f 6//5 4//5 5//5 3//5
f 2//3 7//3 8//3
f 5//6 4//6 8//6 7//6
o Cube.002_Cube.007
v -5.000000 5.500000 5.000000
v -5.000000 0.500000 4.500000
v -5.000000 0.500000 5.000000
v -5.000000 5.500000 4.500000
v -2.000000 5.500000 4.500000
v -2.000000 0.500000 5.000000
v -2.000000 5.500000 5.000000
v -2.000000 0.500000 4.500000
vn 0.0000 1.0000 0.0000
vn 0.0000 -1.0000 0.0000
vn 0.0000 0.0000 1.0000
vn 0.0000 0.0000 -1.0000
vn -1.0000 0.0000 0.0000
vn 1.0000 0.0000 0.0000
usemtl None
s off
f 15//7 13//7 12//7 9//7
f 16//8 11//8 10//8
f 15//9 11//9 14//9
f 12//10 16//10 10//10
f 11//11 9//11 12//11 10//11
f 15//9 9//9 11//9
f 16//8 14//8 11//8
f 15//12 14//12 16//12 13//12
f 12//10 13//10 16//10
o Cube.006
v -4.500000 0.500000 5.000000
v -4.500000 5.500000 5.000000
v -5.000000 0.500000 5.000000
v -5.000000 5.500000 5.000000
v -4.500000 0.500000 -5.000000
v -4.500000 5.500000 -5.000000
v -5.000000 0.500000 -5.000000
v -5.000000 5.500000 -5.000000
vn 0.0000 0.0000 1.0000
vn -1.0000 0.0000 0.0000
vn 0.0000 0.0000 -1.0000
vn 1.0000 0.0000 0.0000
vn 0.0000 -1.0000 0.0000
vn 0.0000 1.0000 0.0000
usemtl None
s off
f 17//13 18//13 20//13 19//13
f 19//14 20//14 24//14 23//14
f 23//15 24//15 22//15 21//15
f 21//16 22//16 18//16 17//16
f 19//17 23//17 21//17 17//17
f 24//18 20//18 18//18 22//18
o Cube.005
v 5.000000 0.500000 -5.000000
v 5.000000 5.500000 -5.000000
v 4.500000 5.500000 -5.000000
v 4.500000 0.500000 -2.000000
v 4.500000 5.500000 -2.000000
v 4.500000 0.500000 -5.000000
v 5.000000 5.500000 -2.000000
v 5.000000 0.500000 -2.000000
vn 0.0000 1.0000 0.0000
vn 0.0000 -1.0000 0.0000
vn 1.0000 0.0000 0.0000
vn 0.0000 0.0000 -1.0000
vn -1.0000 0.0000 0.0000
vn 0.0000 0.0000 1.0000
usemtl None
s off
f 26//19 27//19 29//19 31//19
f 30//20 32//20 28//20
f 26//21 32//21 25//21
f 27//22 26//22 25//22 30//22
f 30//20 25//20 32//20
f 30//23 28//23 29//23 27//23
f 26//21 31//21 32//21
f 29//24 28//24 32//24 31//24
o Cube.004
v 5.000000 5.500000 5.000000
v 4.500000 0.500000 5.000000
v 5.000000 0.500000 5.000000
v 4.500000 5.500000 5.000000
v 4.500000 5.500000 2.000000
v 5.000000 0.500000 2.000000
v 5.000000 5.500000 2.000000
v 4.500000 0.500000 2.000000
vn 0.0000 1.0000 0.0000
vn 0.0000 -1.0000 0.0000
vn 1.0000 0.0000 0.0000
vn -1.0000 0.0000 0.0000
vn 0.0000 0.0000 1.0000
vn 0.0000 0.0000 -1.0000
usemtl None
s off
f 39//25 37//25 36//25 33//25
f 40//26 35//26 34//26
f 39//27 35//27 38//27
f 36//28 40//28 34//28
f 35//29 33//29 36//29 34//29
f 39//27 33//27 35//27
f 40//26 38//26 35//26
f 39//30 38//30 40//30 37//30
f 36//28 37//28 40//28
o Cube.003
v -5.000000 5.500000 -4.500000
v -5.000000 0.500000 -5.000000
v -5.000000 0.500000 -4.500000
v -5.000000 5.500000 -5.000000
v -2.000000 5.500000 -5.000000
v -2.000000 0.500000 -4.500000
v -2.000000 5.500000 -4.500000
v -2.000000 0.500000 -5.000000
vn 0.0000 1.0000 0.0000
vn 0.0000 -1.0000 0.0000
vn 0.0000 0.0000 1.0000
vn 0.0000 0.0000 -1.0000
vn -1.0000 0.0000 0.0000
vn 1.0000 0.0000 0.0000
usemtl None
s off
f 47//31 45//31 44//31 41//31
f 48//32 43//32 42//32
f 47//33 43//33 46//33
f 44//34 48//34 42//34
f 43//35 41//35 44//35 42//35
f 47//33 41//33 43//33
f 48//32 46//32 43//32
f 47//36 46//36 48//36 45//36
f 44//34 45//34 48//34
o Cube.001
v 5.000000 0.500000 -4.500000
v 5.000000 5.500000 -4.500000
v 5.000000 5.500000 -5.000000
v 2.000000 0.500000 -5.000000
v 2.000000 5.500000 -5.000000
v 5.000000 0.500000 -5.000000
v 2.000000 5.500000 -4.500000
v 2.000000 0.500000 -4.500000
vn 0.0000 1.0000 0.0000
vn 0.0000 -1.0000 0.0000
vn 0.0000 0.0000 1.0000
vn 1.0000 0.0000 0.0000
vn 0.0000 0.0000 -1.0000
vn -1.0000 0.0000 0.0000
usemtl None
s off
f 50//37 51//37 53//37 55//37
f 54//38 56//38 52//38
f 50//39 56//39 49//39
f 51//40 50//40 49//40 54//40
f 54//38 49//38 56//38
f 54//41 52//41 53//41 51//41
f 50//39 55//39 56//39
f 53//42 52//42 56//42 55//42
o Cube
v 4.999998 -0.500000 -4.999997
v 4.999998 -0.500000 4.999998
v -4.999998 -0.500000 4.999997
v -4.999996 -0.500000 -5.000000
v 5.000000 0.500000 -4.999995
v 4.999994 0.500000 5.000000
v -5.000000 0.500000 4.999996
v -4.999997 0.500000 -4.999998
vn 0.0000 -1.0000 -0.0000
vn 0.0000 1.0000 0.0000
vn 1.0000 0.0000 0.0000
vn -0.0000 -0.0000 1.0000
vn -1.0000 -0.0000 -0.0000
vn 0.0000 0.0000 -1.0000
usemtl Material
s off
f 57//43 58//43 59//43 60//43
f 61//44 64//44 63//44 62//44
f 57//45 61//45 62//45 58//45
f 58//46 62//46 63//46 59//46
f 59//47 63//47 64//47 60//47
f 61//48 57//48 60//48 64//48
