# Blender v2.78 (sub 0) OBJ File: 'hallway-thin_to-big-room_1.blend'
# www.blender.org
mtllib hallway-thin_to-big-room_1.mtl
o Cube.004_Cube.003
v -5.000000 0.500000 5.000000
v -5.000000 5.500000 5.000000
v -5.000000 0.500000 2.500000
v -5.000000 5.500000 2.500000
v -4.500000 0.500000 5.000000
v -4.500000 5.500000 5.000000
v -4.500000 0.500000 2.500000
v -4.500000 5.500000 2.500000
vn -1.0000 0.0000 0.0000
vn 0.0000 0.0000 -1.0000
vn 1.0000 0.0000 0.0000
vn 0.0000 0.0000 1.0000
vn 0.0000 -1.0000 0.0000
vn 0.0000 1.0000 0.0000
usemtl None
s off
f 1//1 2//1 4//1 3//1
f 3//2 4//2 8//2 7//2
f 7//3 8//3 6//3 5//3
f 5//4 6//4 2//4 1//4
f 3//5 7//5 5//5 1//5
f 8//6 4//6 2//6 6//6
o Cube.003_Cube.001
v -5.000000 0.500000 -2.500000
v -5.000000 5.500000 -2.500000
v -5.000000 0.500000 -5.000000
v -5.000000 5.500000 -5.000000
v -4.500000 0.500000 -2.500000
v -4.500000 5.500000 -2.500000
v -4.500000 0.500000 -5.000000
v -4.500000 5.500000 -5.000000
vn -1.0000 0.0000 0.0000
vn 0.0000 0.0000 -1.0000
vn 1.0000 0.0000 0.0000
vn 0.0000 0.0000 1.0000
vn 0.0000 -1.0000 0.0000
vn 0.0000 1.0000 0.0000
usemtl None
s off
f 9//7 10//7 12//7 11//7
f 11//8 12//8 16//8 15//8
f 15//9 16//9 14//9 13//9
f 13//10 14//10 10//10 9//10
f 11//11 15//11 13//11 9//11
f 16//12 12//12 10//12 14//12
o Cube.001_Cube.006
v -5.000000 0.500000 -2.000000
v -5.000000 5.500000 -2.000000
v -5.000000 0.500000 -2.500000
v -5.000000 5.500000 -2.500000
v 5.000000 0.500000 -2.000000
v 5.000000 5.500000 -2.000000
v 5.000000 0.500000 -2.500000
v 5.000000 5.500000 -2.500000
vn -1.0000 0.0000 0.0000
vn 0.0000 0.0000 -1.0000
vn 1.0000 0.0000 0.0000
vn 0.0000 0.0000 1.0000
vn 0.0000 -1.0000 0.0000
vn 0.0000 1.0000 0.0000
usemtl None
s off
f 17//13 18//13 20//13 19//13
f 19//14 20//14 24//14 23//14
f 23//15 24//15 22//15 21//15
f 21//16 22//16 18//16 17//16
f 19//17 23//17 21//17 17//17
f 24//18 20//18 18//18 22//18
o Cube.002
v -5.000000 0.500000 2.500000
v -5.000000 5.500000 2.500000
v -5.000000 0.500000 2.000000
v -5.000000 5.500000 2.000000
v 5.000000 0.500000 2.500000
v 5.000000 5.500000 2.500000
v 5.000000 0.500000 2.000000
v 5.000000 5.500000 2.000000
vn -1.0000 0.0000 0.0000
vn 0.0000 0.0000 -1.0000
vn 1.0000 0.0000 0.0000
vn 0.0000 0.0000 1.0000
vn 0.0000 -1.0000 0.0000
vn 0.0000 1.0000 0.0000
usemtl None
s off
f 25//19 26//19 28//19 27//19
f 27//20 28//20 32//20 31//20
f 31//21 32//21 30//21 29//21
f 29//22 30//22 26//22 25//22
f 27//23 31//23 29//23 25//23
f 32//24 28//24 26//24 30//24
o Cube
v 4.999998 -0.500000 -4.999996
v 4.999998 -0.500000 4.999996
v -4.999998 -0.500000 4.999995
v -4.999996 -0.500000 -5.000000
v 5.000000 0.500000 -4.999992
v 4.999994 0.500000 5.000001
v -5.000000 0.500000 4.999993
v -4.999997 0.500000 -4.999996
vn 0.0000 -1.0000 -0.0000
vn 0.0000 1.0000 0.0000
vn 1.0000 0.0000 0.0000
vn -0.0000 -0.0000 1.0000
vn -1.0000 -0.0000 -0.0000
vn 0.0000 0.0000 -1.0000
usemtl Material
s off
f 33//25 34//25 35//25 36//25
f 37//26 40//26 39//26 38//26
f 33//27 37//27 38//27 34//27
f 34//28 38//28 39//28 35//28
f 35//29 39//29 40//29 36//29
f 37//30 33//30 36//30 40//30
