# Blender v2.78 (sub 0) OBJ File: 'big-room_2.blend'
# www.blender.org
mtllib big-room_2.mtl
o Cube.002_Cube.006
v -2.234691 2.000022 1.422949
v -2.647048 2.000022 -0.019259
v -2.647048 0.500022 -0.019258
v -2.234691 0.500023 1.422950
v -1.204841 0.500023 -0.431615
v -0.792484 0.500023 1.010592
v -1.204841 2.000022 -0.431615
v -0.792484 2.000023 1.010592
vn -0.9615 0.0000 0.2749
vn 0.0000 -1.0000 0.0000
vn 0.9615 0.0000 -0.2749
vn -0.0000 1.0000 -0.0000
vn 0.2749 0.0000 0.9615
vn -0.2749 -0.0000 -0.9615
usemtl None
s 1
f 1//1 2//1 3//1 4//1
f 4//2 3//2 5//2 6//2
f 6//3 5//3 7//3 8//3
f 8//4 7//4 2//4 1//4
f 4//5 6//5 8//5 1//5
f 5//6 3//6 2//6 7//6
o Cube.003_Cube.007
v -1.703508 0.500008 -1.980126
v -1.703500 2.000008 -1.980111
v -1.680224 2.000022 -3.479931
v -1.680231 0.500022 -3.479946
v -0.180405 2.000015 -3.456654
v -0.180412 0.500015 -3.456669
v -0.203681 2.000001 -1.956836
v -0.203688 0.500000 -1.956850
vn -0.9999 0.0000 -0.0155
vn 0.0155 0.0000 -0.9999
vn 0.9999 -0.0000 0.0155
vn -0.0155 -0.0000 0.9999
vn -0.0000 -1.0000 -0.0000
vn 0.0000 1.0000 0.0000
usemtl None
s 1
f 9//7 10//7 11//7 12//7
f 12//8 11//8 13//8 14//8
f 14//9 13//9 15//9 16//9
f 16//10 15//10 10//10 9//10
f 12//11 14//11 16//11 9//11
f 13//12 11//12 10//12 15//12
o Cube_Cube.004
v -2.857578 0.499853 -0.792368
v -2.857594 1.999852 -0.792191
v -3.584367 1.999999 -2.104365
v -3.584351 0.499999 -2.104542
v -2.272193 2.000099 -2.831138
v -2.272176 0.500099 -2.831315
v -1.545420 1.999953 -1.518963
v -1.545404 0.499953 -1.519140
vn -0.8748 -0.0001 0.4845
vn -0.4845 0.0001 -0.8748
vn 0.8748 0.0001 -0.4845
vn 0.4845 -0.0001 0.8748
vn 0.0000 -1.0000 -0.0001
vn -0.0000 1.0000 0.0001
usemtl None
s 1
f 17//13 18//13 19//13 20//13
f 20//14 19//14 21//14 22//14
f 22//15 21//15 23//15 24//15
f 24//16 23//16 18//16 17//16
f 20//17 22//17 24//17 17//17
f 21//18 19//18 18//18 23//18
o Cube.001_Cube.005
v -1.779060 3.500084 -1.470707
v -2.546007 3.500154 -2.759812
v -2.546062 2.000154 -2.759860
v -1.779115 2.000084 -1.470755
v -1.256957 2.000131 -3.526807
v -0.490010 2.000061 -2.237702
v -1.256902 3.500131 -3.526759
v -0.489955 3.500061 -2.237654
vn -0.8594 0.0000 0.5113
vn -0.0000 -1.0000 -0.0000
vn 0.8594 -0.0000 -0.5113
vn 0.0000 1.0000 0.0000
vn 0.5113 -0.0000 0.8594
vn -0.5113 0.0000 -0.8594
usemtl None
s 1
f 25//19 26//19 27//19 28//19
f 28//20 27//20 29//20 30//20
f 30//21 29//21 31//21 32//21
f 32//22 31//22 26//22 25//22
f 28//23 30//23 32//23 25//23
f 29//24 27//24 26//24 31//24
o Cube.004
v 5.000000 5.500000 5.000000
v 4.500000 0.500000 5.000000
v 5.000000 0.500000 5.000000
v 4.500000 5.500000 5.000000
v 4.500000 5.500000 2.000000
v 5.000000 0.500000 2.000000
v 5.000000 5.500000 2.000000
v 4.500000 0.500000 2.000000
v -5.000000 0.500000 -4.500000
v -5.000000 5.500000 -4.500000
v -5.000000 0.500000 -5.000000
v -5.000000 5.500000 -5.000000
v 5.000000 0.500000 -4.500000
v 5.000000 5.500000 -4.500000
v 5.000000 0.500000 -5.000000
v 5.000000 5.500000 -5.000000
v -4.500000 0.500000 5.000000
v -4.500000 5.500000 5.000000
v -5.000000 0.500000 5.000000
v -5.000000 5.500000 5.000000
v -4.500000 0.500000 -5.000000
v -4.500000 5.500000 -5.000000
v -5.000000 0.500000 -5.000000
v -5.000000 5.500000 -5.000000
v 5.000000 0.500000 -5.000000
v 5.000000 5.500000 -5.000000
v 4.500000 5.500000 -5.000000
v 4.500000 0.500000 -2.000000
v 4.500000 5.500000 -2.000000
v 4.500000 0.500000 -5.000000
v 5.000000 5.500000 -2.000000
v 5.000000 0.500000 -2.000000
v -5.000000 0.500000 5.000000
v -5.000000 5.500000 5.000000
v -5.000000 0.500000 4.500000
v -5.000000 5.500000 4.500000
v 5.000000 0.500000 5.000000
v 5.000000 5.500000 5.000000
v 5.000000 0.500000 4.500000
v 5.000000 5.500000 4.500000
vn 0.0000 1.0000 0.0000
vn 0.0000 -1.0000 0.0000
vn 1.0000 0.0000 0.0000
vn -1.0000 0.0000 0.0000
vn 0.0000 0.0000 1.0000
vn 0.0000 0.0000 -1.0000
usemtl None
s off
f 39//25 37//25 36//25 33//25
f 40//26 35//26 34//26
f 39//27 35//27 38//27
f 36//28 40//28 34//28
f 35//29 33//29 36//29 34//29
f 39//27 33//27 35//27
f 40//26 38//26 35//26
f 39//30 38//30 40//30 37//30
f 36//28 37//28 40//28
f 41//28 42//28 44//28 43//28
f 43//30 44//30 48//30 47//30
f 47//27 48//27 46//27 45//27
f 45//29 46//29 42//29 41//29
f 43//26 47//26 45//26 41//26
f 48//25 44//25 42//25 46//25
f 49//29 50//29 52//29 51//29
f 51//28 52//28 56//28 55//28
f 55//30 56//30 54//30 53//30
f 53//27 54//27 50//27 49//27
f 51//26 55//26 53//26 49//26
f 56//25 52//25 50//25 54//25
f 58//25 59//25 61//25 63//25
f 62//26 64//26 60//26
f 58//27 64//27 57//27
f 59//30 58//30 57//30 62//30
f 62//26 57//26 64//26
f 62//28 60//28 61//28 59//28
f 58//27 63//27 64//27
f 61//29 60//29 64//29 63//29
f 65//28 66//28 68//28 67//28
f 67//30 68//30 72//30 71//30
f 71//27 72//27 70//27 69//27
f 69//29 70//29 66//29 65//29
f 67//26 71//26 69//26 65//26
f 72//25 68//25 66//25 70//25
o Cube
v 4.999998 -0.500000 -4.999997
v 4.999998 -0.500000 4.999998
v -4.999998 -0.500000 4.999997
v -4.999996 -0.500000 -5.000000
v 5.000000 0.500000 -4.999995
v 4.999994 0.500000 5.000000
v -5.000000 0.500000 4.999996
v -4.999997 0.500000 -4.999998
vn 0.0000 -1.0000 -0.0000
vn 0.0000 1.0000 0.0000
vn 1.0000 0.0000 0.0000
vn -0.0000 -0.0000 1.0000
vn -1.0000 -0.0000 -0.0000
vn 0.0000 0.0000 -1.0000
usemtl Material
s off
f 73//31 74//31 75//31 76//31
f 77//32 80//32 79//32 78//32
f 73//33 77//33 78//33 74//33
f 74//34 78//34 79//34 75//34
f 75//35 79//35 80//35 76//35
f 77//36 73//36 76//36 80//36
