# Blender v2.78 (sub 0) OBJ File: 'big-room_3.blend'
# www.blender.org
mtllib big-room_3.mtl
o Cube.002_Cube.000
v -2.428136 0.500000 -2.626133
v -1.633676 0.500000 -3.336648
v -0.923160 0.500000 -2.542188
v -1.717621 0.500000 -1.831672
v -0.923160 1.565833 -2.542187
v -1.717621 1.565833 -1.831672
v -1.633675 1.565833 -3.336648
v -2.428135 1.565833 -2.626132
vn 0.0000 -1.0000 -0.0000
vn 0.6666 -0.0000 0.7454
vn -0.0000 1.0000 0.0000
vn -0.6666 0.0000 -0.7454
vn -0.7454 0.0000 0.6666
vn 0.7454 -0.0000 -0.6666
usemtl None.001
s 1
f 1//1 2//1 3//1 4//1
f 4//2 3//2 5//2 6//2
f 6//3 5//3 7//3 8//3
f 8//4 7//4 2//4 1//4
f 4//5 6//5 8//5 1//5
f 5//6 3//6 2//6 7//6
o Cube.003_Cube.000
v -2.162679 0.499999 -0.825409
v -2.162681 1.565832 -0.825408
v -1.129062 1.565834 -1.085470
v -1.129061 0.500001 -1.085471
v -0.869000 1.565834 -0.051852
v -0.868999 0.500001 -0.051852
v -1.902619 1.565832 0.208211
v -1.902617 0.499999 0.208210
vn -0.2440 0.0000 -0.9698
vn 0.9698 0.0000 -0.2440
vn 0.2440 -0.0000 0.9698
vn -0.9698 -0.0000 0.2440
vn 0.0000 -1.0000 -0.0000
vn -0.0000 1.0000 0.0000
usemtl None.001
s 1
f 9//7 10//7 11//7 12//7
f 12//8 11//8 13//8 14//8
f 14//9 13//9 15//9 16//9
f 16//10 15//10 10//10 9//10
f 12//11 14//11 16//11 9//11
f 13//12 11//12 10//12 15//12
o Cube_Cube.000
v -4.157913 0.500006 -0.148048
v -4.036284 0.500005 0.910822
v -4.036272 1.565839 0.910822
v -4.157900 1.565839 -0.148049
v -2.977402 1.565826 0.789193
v -3.099031 1.565827 -0.269677
v -2.977414 0.499993 0.789194
v -3.099043 0.499994 -0.269677
vn -0.9935 0.0000 0.1141
vn 0.0000 1.0000 -0.0000
vn 0.9935 -0.0000 -0.1141
vn -0.0000 -1.0000 0.0000
vn -0.1141 0.0000 -0.9935
vn 0.1141 -0.0000 0.9935
usemtl None.001
s 1
f 17//13 18//13 19//13 20//13
f 20//14 19//14 21//14 22//14
f 22//15 21//15 23//15 24//15
f 24//16 23//16 18//16 17//16
f 20//17 22//17 24//17 17//17
f 21//18 19//18 18//18 23//18
o Cube.001_Cube.000
v -0.398293 1.565825 -4.320143
v 0.622749 1.565832 -4.014407
v 0.622754 0.500000 -4.014403
v -0.398287 0.499993 -4.320139
v 0.317019 0.500002 -2.993362
v -0.704022 0.499994 -3.299097
v 0.317012 1.565834 -2.993366
v -0.704029 1.565827 -3.299101
vn 0.2869 -0.0000 -0.9580
vn 0.0000 -1.0000 0.0000
vn -0.2869 0.0000 0.9580
vn -0.0000 1.0000 -0.0000
vn -0.9580 -0.0000 -0.2869
vn 0.9580 0.0000 0.2869
usemtl None.001
s 1
f 25//19 26//19 27//19 28//19
f 28//20 27//20 29//20 30//20
f 30//21 29//21 31//21 32//21
f 32//22 31//22 26//22 25//22
f 28//23 30//23 32//23 25//23
f 29//24 27//24 26//24 31//24
o Cube.001
v 2.623304 1.812318 1.694791
v -0.780423 1.812318 2.510041
v -0.372799 1.812318 4.211904
v 3.030928 1.812318 3.396654
v -0.537301 0.499999 2.451808
v -0.537301 1.562318 2.451808
v -0.479068 1.562318 2.694932
v -0.479069 0.499999 2.694932
v -0.722192 1.562318 2.753164
v -0.722192 0.499999 2.753164
v -0.780424 0.499999 2.510041
v -0.431031 0.499999 3.968781
v -0.431031 1.562318 3.968781
v -0.187907 1.562318 3.910549
v -0.187907 0.499999 3.910549
v -0.129675 1.562318 4.153673
v -0.129675 0.499999 4.153672
v -0.372799 0.499999 4.211905
v 2.787805 0.499999 3.454886
v 2.787806 1.562318 3.454886
v 2.729573 1.562318 3.211763
v 2.729573 0.499999 3.211762
v 2.972697 1.562318 3.153530
v 2.972696 0.499999 3.153530
v 3.030929 0.499999 3.396654
v 2.438412 0.499999 1.996145
v 2.438412 1.562318 1.996145
v 2.380180 1.562318 1.753022
v 2.380180 0.499999 1.753022
v 2.681535 0.499999 1.937913
v 2.681535 1.562318 1.937913
v 2.623303 0.499999 1.694790
vt 0.2857 0.6667
vt 0.2857 0.0000
vt 0.5715 0.0000
vt 0.5715 0.6667
vt 0.3164 0.6667
vt 0.3164 0.8690
vt 0.2756 0.8690
vt 0.2756 0.6667
vt 0.6225 0.8690
vt 0.6225 0.6667
vt 0.6633 0.6667
vt 0.6633 0.8690
vt 0.5816 0.6667
vt 0.6225 0.6667
vt 0.6225 0.7143
vt 0.5816 0.7143
vt 0.6633 0.8690
vt 0.6633 0.6667
vt 0.7041 0.6667
vt 0.7041 0.8690
vt 0.7857 0.6667
vt 0.7857 0.8690
vt 0.7449 0.8690
vt 0.7449 0.6667
vt 0.5816 0.7143
vt 0.6225 0.7143
vt 0.6225 0.7619
vt 0.5816 0.7619
vt 0.7857 0.8690
vt 0.7857 0.6667
vt 0.8266 0.6667
vt 0.8266 0.8690
vt 0.2143 0.8690
vt 0.2143 0.6667
vt 0.2551 0.6667
vt 0.2551 0.8690
vt 0.5816 0.7619
vt 0.6225 0.7619
vt 0.6225 0.8095
vt 0.5816 0.8095
vt 0.3164 0.8690
vt 0.3164 0.6667
vt 0.3572 0.6667
vt 0.3572 0.8690
vt 0.7449 0.6667
vt 0.7449 0.8690
vt 0.7041 0.8690
vt 0.7041 0.6667
vt 0.5816 0.8095
vt 0.6225 0.8095
vt 0.6225 0.8571
vt 0.5816 0.8571
vt 0.0000 0.6190
vt 0.0000 0.0476
vt 0.0408 0.0476
vt 0.0408 0.0000
vt 0.2449 0.0000
vt 0.2449 0.0476
vt 0.2857 0.0476
vt 0.2857 0.6190
vt 0.2449 0.6190
vt 0.2449 0.6667
vt 0.0408 0.6667
vt 0.0408 0.6190
vt 0.5715 0.0000
vt 0.7857 0.0000
vt 0.7857 0.0476
vt 0.6123 0.0476
vt 0.6123 0.6190
vt 0.7857 0.6190
vt 0.7857 0.6667
vt 0.5715 0.6667
vt 0.5715 0.6667
vt 0.5715 1.0000
vt 0.3572 1.0000
vt 0.3572 0.9524
vt 0.5306 0.9524
vt 0.5306 0.7143
vt 0.3572 0.7143
vt 0.3572 0.6667
vt 1.0000 0.0000
vt 1.0000 0.0476
vt 0.8266 0.0476
vt 0.8266 0.6190
vt 1.0000 0.6190
vt 1.0000 0.6667
vt 0.7857 0.6667
vt 0.7857 0.0000
vt 0.2143 1.0000
vt 0.0000 1.0000
vt 0.0000 0.9524
vt 0.1734 0.9524
vt 0.1734 0.7143
vt 0.0000 0.7143
vt 0.0000 0.6667
vt 0.2143 0.6667
vn 0.0000 1.0000 0.0000
vn 0.9725 -0.0000 -0.2329
vn 0.2329 -0.0000 0.9725
vn 0.0000 -1.0000 0.0000
vn -0.2329 0.0000 -0.9725
vn -0.9725 -0.0000 0.2329
usemtl Material.001
s 1
f 33/1/25 34/2/25 35/3/25 36/4/25
f 37/5/26 38/6/26 39/7/26 40/8/26
f 40/9/27 39/10/27 41/11/27 42/12/27
f 43/13/28 37/14/28 40/15/28 42/16/28
f 44/17/29 45/18/29 46/19/29 47/20/29
f 47/21/26 46/22/26 48/23/26 49/24/26
f 44/25/28 47/26/28 49/27/28 50/28/28
f 51/29/30 52/30/30 53/31/30 54/32/30
f 54/33/29 53/34/29 55/35/29 56/36/29
f 54/37/28 56/38/28 57/39/28 51/40/28
f 58/41/30 59/42/30 60/43/30 61/44/30
f 62/45/27 63/46/27 59/47/27 58/48/27
f 61/49/28 64/50/28 62/51/28 58/52/28
f 38/53/28 60/54/28 59/55/28 63/56/28 55/57/28 53/58/28 52/59/28 48/60/28 46/61/28 45/62/28 41/63/28 39/64/28
f 33/65/29 64/66/29 61/67/29 60/68/29 38/69/29 37/70/29 43/71/29 34/72/29
f 33/73/26 36/74/26 57/75/26 56/76/26 55/77/26 63/78/26 62/79/26 64/80/26
f 50/81/27 49/82/27 48/83/27 52/84/27 51/85/27 57/86/27 36/87/27 35/88/27
f 34/89/30 43/90/30 42/91/30 41/92/30 45/93/30 44/94/30 50/95/30 35/96/30
o Cube.004
v 5.000000 5.500000 5.000000
v 4.500000 0.500000 5.000000
v 5.000000 0.500000 5.000000
v 4.500000 5.500000 5.000000
v 4.500000 5.500000 2.000000
v 5.000000 0.500000 2.000000
v 5.000000 5.500000 2.000000
v 4.500000 0.500000 2.000000
v -5.000000 0.500000 -4.500000
v -5.000000 5.500000 -4.500000
v -5.000000 0.500000 -5.000000
v -5.000000 5.500000 -5.000000
v 5.000000 0.500000 -4.500000
v 5.000000 5.500000 -4.500000
v 5.000000 0.500000 -5.000000
v 5.000000 5.500000 -5.000000
v -4.500000 0.500000 5.000000
v -4.500000 5.500000 5.000000
v -5.000000 0.500000 5.000000
v -5.000000 5.500000 5.000000
v -4.500000 0.500000 -5.000000
v -4.500000 5.500000 -5.000000
v -5.000000 0.500000 -5.000000
v -5.000000 5.500000 -5.000000
v 5.000000 0.500000 -5.000000
v 5.000000 5.500000 -5.000000
v 4.500000 5.500000 -5.000000
v 4.500000 0.500000 -2.000000
v 4.500000 5.500000 -2.000000
v 4.500000 0.500000 -5.000000
v 5.000000 5.500000 -2.000000
v 5.000000 0.500000 -2.000000
v -5.000000 0.500000 5.000000
v -5.000000 5.500000 5.000000
v -5.000000 0.500000 4.500000
v -5.000000 5.500000 4.500000
v 5.000000 0.500000 5.000000
v 5.000000 5.500000 5.000000
v 5.000000 0.500000 4.500000
v 5.000000 5.500000 4.500000
vn 0.0000 1.0000 0.0000
vn 0.0000 -1.0000 0.0000
vn 1.0000 0.0000 0.0000
vn -1.0000 0.0000 0.0000
vn 0.0000 0.0000 1.0000
vn 0.0000 0.0000 -1.0000
usemtl None
s off
f 71//31 69//31 68//31 65//31
f 72//32 67//32 66//32
f 71//33 67//33 70//33
f 68//34 72//34 66//34
f 67//35 65//35 68//35 66//35
f 71//33 65//33 67//33
f 72//32 70//32 67//32
f 71//36 70//36 72//36 69//36
f 68//34 69//34 72//34
f 73//34 74//34 76//34 75//34
f 75//36 76//36 80//36 79//36
f 79//33 80//33 78//33 77//33
f 77//35 78//35 74//35 73//35
f 75//32 79//32 77//32 73//32
f 80//31 76//31 74//31 78//31
f 81//35 82//35 84//35 83//35
f 83//34 84//34 88//34 87//34
f 87//36 88//36 86//36 85//36
f 85//33 86//33 82//33 81//33
f 83//32 87//32 85//32 81//32
f 88//31 84//31 82//31 86//31
f 90//31 91//31 93//31 95//31
f 94//32 96//32 92//32
f 90//33 96//33 89//33
f 91//36 90//36 89//36 94//36
f 94//32 89//32 96//32
f 94//34 92//34 93//34 91//34
f 90//33 95//33 96//33
f 93//35 92//35 96//35 95//35
f 97//34 98//34 100//34 99//34
f 99//36 100//36 104//36 103//36
f 103//33 104//33 102//33 101//33
f 101//35 102//35 98//35 97//35
f 99//32 103//32 101//32 97//32
f 104//31 100//31 98//31 102//31
o Cube
v 4.999998 -0.500000 -4.999997
v 4.999998 -0.500000 4.999998
v -4.999998 -0.500000 4.999997
v -4.999996 -0.500000 -5.000000
v 5.000000 0.500000 -4.999995
v 4.999994 0.500000 5.000000
v -5.000000 0.500000 4.999996
v -4.999997 0.500000 -4.999998
vn 0.0000 -1.0000 -0.0000
vn 0.0000 1.0000 0.0000
vn 1.0000 0.0000 0.0000
vn -0.0000 -0.0000 1.0000
vn -1.0000 -0.0000 -0.0000
vn 0.0000 0.0000 -1.0000
usemtl Material
s off
f 105//37 106//37 107//37 108//37
f 109//38 112//38 111//38 110//38
f 105//39 109//39 110//39 106//39
f 106//40 110//40 111//40 107//40
f 107//41 111//41 112//41 108//41
f 109//42 105//42 108//42 112//42
