# Blender v2.78 (sub 0) OBJ File: 'big-room-4-exit_2.blend'
# www.blender.org
mtllib big-room-4-exit_2.mtl
o Cube.002_Cube.006
v 0.899798 2.000000 -0.244775
v 0.899797 0.500000 -0.244775
v -0.247475 0.500000 0.721541
v -0.247474 2.000000 0.721542
v 0.718842 0.500000 1.868814
v 0.718842 2.000000 1.868814
v 1.866114 0.500000 0.902496
v 1.866114 2.000000 0.902497
vn -0.6442 0.0000 -0.7648
vn -0.7648 0.0000 0.6442
vn 0.6442 -0.0000 0.7648
vn 0.7648 -0.0000 -0.6442
vn -0.0000 1.0000 0.0000
vn 0.0000 -1.0000 -0.0000
usemtl None
s 1
f 1//1 2//1 3//1 4//1
f 4//2 3//2 5//2 6//2
f 6//3 5//3 7//3 8//3
f 8//4 7//4 2//4 1//4
f 4//5 6//5 8//5 1//5
f 5//6 3//6 2//6 7//6
o Cube.004_Cube.008
v 0.235168 3.500201 0.803980
v 0.261552 3.500053 -0.695788
v -1.238216 3.499959 -0.722172
v -1.264600 3.500105 0.777596
v -1.238123 1.999958 -0.722023
v -1.264507 2.000105 0.777745
v 0.261645 2.000053 -0.695639
v 0.235261 2.000201 0.804129
vn -0.0001 1.0000 -0.0001
vn -0.9998 -0.0001 -0.0176
vn 0.0001 -1.0000 0.0001
vn 0.9998 0.0001 0.0176
vn -0.0176 0.0001 0.9998
vn 0.0176 -0.0001 -0.9998
usemtl None
s 1
f 9//7 10//7 11//7 12//7
f 12//8 11//8 13//8 14//8
f 14//9 13//9 15//9 16//9
f 16//10 15//10 10//10 9//10
f 12//11 14//11 16//11 9//11
f 13//12 11//12 10//12 15//12
o Cube_Cube.004
v -2.082057 0.500018 1.492106
v -2.082100 2.000018 1.492048
v -2.549216 1.999949 0.066634
v -2.549171 0.499949 0.066693
v -1.123803 1.999974 -0.400481
v -1.123758 0.499974 -0.400423
v -0.656687 2.000042 1.024932
v -0.656643 0.500042 1.024991
vn -0.9503 -0.0000 0.3114
vn -0.3114 -0.0000 -0.9503
vn 0.9503 0.0000 -0.3114
vn 0.3114 0.0000 0.9503
vn 0.0000 -1.0000 0.0000
vn -0.0000 1.0000 -0.0000
usemtl None
s 1
f 17//13 18//13 19//13 20//13
f 20//14 19//14 21//14 22//14
f 22//15 21//15 23//15 24//15
f 24//16 23//16 18//16 17//16
f 20//17 22//17 24//17 17//17
f 21//18 19//18 18//18 23//18
o Cube.001_Cube.005
v -0.580942 2.000252 -0.558588
v -0.510687 2.000252 -2.056942
v -0.510943 0.500252 -2.056955
v -0.581198 0.500252 -0.558601
v 0.987411 0.499996 -1.986700
v 0.917156 0.499996 -0.488346
v 0.987667 1.999996 -1.986687
v 0.917412 1.999995 -0.488333
vn -0.9989 0.0002 -0.0468
vn -0.0002 -1.0000 -0.0000
vn 0.9989 -0.0002 0.0468
vn 0.0002 1.0000 0.0000
vn -0.0468 -0.0000 0.9989
vn 0.0468 0.0000 -0.9989
usemtl None
s 1
f 25//19 26//19 27//19 28//19
f 28//20 27//20 29//20 30//20
f 30//21 29//21 31//21 32//21
f 32//22 31//22 26//22 25//22
f 28//23 30//23 32//23 25//23
f 29//24 27//24 26//24 31//24
o Cube.005
v 5.000000 0.500000 -5.000000
v 5.000000 5.500000 -5.000000
v 4.500000 5.500000 -5.000000
v 4.500000 0.500000 -2.000000
v 4.500000 5.500000 -2.000000
v 4.500000 0.500000 -5.000000
v 5.000000 5.500000 -2.000000
v 5.000000 0.500000 -2.000000
v -4.500000 5.500000 5.000000
v -5.000000 0.500000 5.000000
v -4.500000 0.500000 5.000000
v -5.000000 5.500000 5.000000
v -5.000000 5.500000 2.000000
v -4.500000 0.500000 2.000000
v -4.500000 5.500000 2.000000
v -5.000000 0.500000 2.000000
v -4.500000 0.500000 -5.000000
v -4.500000 5.500000 -5.000000
v -5.000000 5.500000 -5.000000
v -5.000000 0.500000 -2.000000
v -5.000000 5.500000 -2.000000
v -5.000000 0.500000 -5.000000
v -4.500000 5.500000 -2.000000
v -4.500000 0.500000 -2.000000
v 5.000000 0.500000 5.000000
v 5.000000 5.500000 5.000000
v 5.000000 5.500000 4.500000
v 2.000000 0.500000 4.500000
v 2.000000 5.500000 4.500000
v 5.000000 0.500000 4.500000
v 2.000000 5.500000 5.000000
v 2.000000 0.500000 5.000000
v -5.000000 5.500000 5.000000
v -5.000000 0.500000 4.500000
v -5.000000 0.500000 5.000000
v -5.000000 5.500000 4.500000
v -2.000000 5.500000 4.500000
v -2.000000 0.500000 5.000000
v -2.000000 5.500000 5.000000
v -2.000000 0.500000 4.500000
v 5.000000 5.500000 5.000000
v 4.500000 0.500000 5.000000
v 5.000000 0.500000 5.000000
v 4.500000 5.500000 5.000000
v 4.500000 5.500000 2.000000
v 5.000000 0.500000 2.000000
v 5.000000 5.500000 2.000000
v 4.500000 0.500000 2.000000
v -5.000000 5.500000 -4.500000
v -5.000000 0.500000 -5.000000
v -5.000000 0.500000 -4.500000
v -5.000000 5.500000 -5.000000
v -2.000000 5.500000 -5.000000
v -2.000000 0.500000 -4.500000
v -2.000000 5.500000 -4.500000
v -2.000000 0.500000 -5.000000
v 5.000000 0.500000 -4.500000
v 5.000000 5.500000 -4.500000
v 5.000000 5.500000 -5.000000
v 2.000000 0.500000 -5.000000
v 2.000000 5.500000 -5.000000
v 5.000000 0.500000 -5.000000
v 2.000000 5.500000 -4.500000
v 2.000000 0.500000 -4.500000
vn 0.0000 1.0000 0.0000
vn 0.0000 -1.0000 0.0000
vn 1.0000 0.0000 0.0000
vn 0.0000 0.0000 -1.0000
vn -1.0000 0.0000 0.0000
vn 0.0000 0.0000 1.0000
usemtl None
s off
f 34//25 35//25 37//25 39//25
f 38//26 40//26 36//26
f 34//27 40//27 33//27
f 35//28 34//28 33//28 38//28
f 38//26 33//26 40//26
f 38//29 36//29 37//29 35//29
f 34//27 39//27 40//27
f 37//30 36//30 40//30 39//30
f 47//25 45//25 44//25 41//25
f 48//26 43//26 42//26
f 47//27 43//27 46//27
f 44//29 48//29 42//29
f 43//30 41//30 44//30 42//30
f 47//27 41//27 43//27
f 48//26 46//26 43//26
f 47//28 46//28 48//28 45//28
f 44//29 45//29 48//29
f 50//25 51//25 53//25 55//25
f 54//26 56//26 52//26
f 50//27 56//27 49//27
f 51//28 50//28 49//28 54//28
f 54//26 49//26 56//26
f 54//29 52//29 53//29 51//29
f 50//27 55//27 56//27
f 53//30 52//30 56//30 55//30
f 58//25 59//25 61//25 63//25
f 62//26 64//26 60//26
f 58//30 64//30 57//30
f 59//27 58//27 57//27 62//27
f 62//26 57//26 64//26
f 62//28 60//28 61//28 59//28
f 58//30 63//30 64//30
f 61//29 60//29 64//29 63//29
f 71//25 69//25 68//25 65//25
f 72//26 67//26 66//26
f 71//30 67//30 70//30
f 68//28 72//28 66//28
f 67//29 65//29 68//29 66//29
f 71//30 65//30 67//30
f 72//26 70//26 67//26
f 71//27 70//27 72//27 69//27
f 68//28 69//28 72//28
f 79//25 77//25 76//25 73//25
f 80//26 75//26 74//26
f 79//27 75//27 78//27
f 76//29 80//29 74//29
f 75//30 73//30 76//30 74//30
f 79//27 73//27 75//27
f 80//26 78//26 75//26
f 79//28 78//28 80//28 77//28
f 76//29 77//29 80//29
f 87//25 85//25 84//25 81//25
f 88//26 83//26 82//26
f 87//30 83//30 86//30
f 84//28 88//28 82//28
f 83//29 81//29 84//29 82//29
f 87//30 81//30 83//30
f 88//26 86//26 83//26
f 87//27 86//27 88//27 85//27
f 84//28 85//28 88//28
f 90//25 91//25 93//25 95//25
f 94//26 96//26 92//26
f 90//30 96//30 89//30
f 91//27 90//27 89//27 94//27
f 94//26 89//26 96//26
f 94//28 92//28 93//28 91//28
f 90//30 95//30 96//30
f 93//29 92//29 96//29 95//29
o Cube
v 4.999998 -0.500000 -4.999997
v 4.999998 -0.500000 4.999998
v -4.999998 -0.500000 4.999997
v -4.999996 -0.500000 -5.000000
v 5.000000 0.500000 -4.999995
v 4.999994 0.500000 5.000000
v -5.000000 0.500000 4.999996
v -4.999997 0.500000 -4.999998
vn 0.0000 -1.0000 -0.0000
vn 0.0000 1.0000 0.0000
vn 1.0000 0.0000 0.0000
vn -0.0000 -0.0000 1.0000
vn -1.0000 -0.0000 -0.0000
vn 0.0000 0.0000 -1.0000
usemtl Material
s off
f 97//31 98//31 99//31 100//31
f 101//32 104//32 103//32 102//32
f 97//33 101//33 102//33 98//33
f 98//34 102//34 103//34 99//34
f 99//35 103//35 104//35 100//35
f 101//36 97//36 100//36 104//36
