# Blender v2.78 (sub 0) OBJ File: 'hybrid-intersection-3_2.blend'
# www.blender.org
mtllib hybrid-intersection-3_2.mtl
o Cylinder_Cylinder.001
v -3.300000 1.152038 -3.800000
v -3.300000 6.628599 -3.799999
v -3.108658 6.628599 -3.761939
v -3.108658 1.152038 -3.761940
v -2.946447 6.628599 -3.653552
v -2.946446 1.152038 -3.653553
v -2.838060 6.628599 -3.491341
v -2.838060 1.152038 -3.491342
v -2.800000 6.628599 -3.299999
v -2.800000 1.152038 -3.300000
v -2.838060 6.628599 -3.108657
v -2.838060 1.152038 -3.108658
v -2.946447 6.628599 -2.946446
v -2.946446 1.152038 -2.946447
v -3.108658 6.628599 -2.838059
v -3.108658 1.152038 -2.838060
v -3.300000 6.628599 -2.799999
v -3.300000 1.152038 -2.800000
v -3.491342 6.628599 -2.838059
v -3.491341 1.152038 -2.838060
v -3.653553 6.628599 -2.946445
v -3.653553 1.152038 -2.946446
v -3.761940 6.628599 -3.108657
v -3.761940 1.152038 -3.108658
v -3.800000 6.628599 -3.299999
v -3.800000 1.152038 -3.300000
v -3.761940 6.628599 -3.491341
v -3.761940 1.152038 -3.491342
v -3.653553 6.628599 -3.653553
v -3.653553 1.152038 -3.653554
v -3.491341 6.628599 -3.761939
v -3.491341 1.152038 -3.761940
v -2.660202 0.794088 -3.034987
v -2.607488 0.794088 -3.300000
v -3.565012 0.794088 -2.660203
v -3.789679 0.794088 -2.810320
v -3.789679 0.499999 -2.810320
v -3.565012 0.499999 -2.660203
v -3.565012 0.794088 -3.939798
v -3.789679 0.794088 -3.789680
v -2.660202 0.794088 -3.565013
v -2.810320 0.794088 -3.789680
v -3.300000 0.794088 -2.607488
v -3.034987 0.794088 -2.660203
v -3.034987 0.794088 -3.939797
v -3.300000 0.794089 -3.992512
v -3.939797 0.794088 -3.565013
v -3.992511 0.794088 -3.300000
v -2.810320 0.794088 -2.810320
v -3.939797 0.794088 -3.034987
v -3.300000 0.500000 -3.992512
v -3.034987 0.500000 -3.939797
v -2.810320 0.499999 -3.789680
v -2.660202 0.499999 -3.565013
v -2.607488 0.499999 -3.300000
v -2.660202 0.499999 -3.034987
v -2.810320 0.499999 -2.810320
v -3.034987 0.499999 -2.660203
v -3.300000 0.499999 -2.607488
v -3.939797 0.499999 -3.034987
v -3.992511 0.499999 -3.300000
v -3.939797 0.499999 -3.565013
v -3.789679 0.499999 -3.789680
v -3.565012 0.500000 -3.939798
vt 0.0858 0.1050
vt 0.0889 0.9996
vt 0.0582 0.9997
vt 0.0537 0.1078
vt 0.0266 0.9999
vt 0.0227 0.1119
vt 0.5826 0.1123
vt 0.5775 0.9999
vt 0.5468 0.9997
vt 0.5522 0.1082
vt 0.5160 0.9996
vt 0.5205 0.1054
vt 0.4852 0.9995
vt 0.4881 0.1037
vt 0.4545 0.9995
vt 0.4553 0.1030
vt 0.4237 0.9995
vt 0.4224 0.1034
vt 0.3929 0.9996
vt 0.3898 0.1050
vt 0.3621 0.9997
vt 0.3577 0.1078
vt 0.3305 0.9999
vt 0.3267 0.1119
vt 0.2786 0.1123
vt 0.2736 0.9999
vt 0.2428 0.9997
vt 0.2482 0.1082
vt 0.2121 0.9996
vt 0.2165 0.1054
vt 0.1813 0.9995
vt 0.1841 0.1037
vt 0.1505 0.9995
vt 0.1514 0.1030
vt 0.7020 0.3743
vt 0.6708 0.3743
vt 0.6420 0.3623
vt 0.6200 0.3403
vt 0.6080 0.3115
vt 0.6080 0.2803
vt 0.6200 0.2515
vt 0.6420 0.2295
vt 0.6708 0.2175
vt 0.7020 0.2175
vt 0.7308 0.2295
vt 0.7528 0.2515
vt 0.7648 0.2803
vt 0.7648 0.3115
vt 0.7528 0.3403
vt 0.7308 0.3623
vt 0.1197 0.9995
vt 0.1185 0.1034
vt 0.4925 0.0418
vt 0.5281 0.0450
vt 0.3481 0.0460
vt 0.3095 0.0524
vt 0.3041 0.0102
vt 0.3429 0.0052
vt 0.1170 0.0405
vt 0.1529 0.0403
vt 0.5637 0.0502
vt 0.6000 0.0579
vt 0.3848 0.0423
vt 0.4209 0.0405
vt 0.0441 0.0460
vt 0.0808 0.0423
vt 0.1886 0.0418
vt 0.2241 0.0450
vt 0.4568 0.0403
vt 0.2597 0.0502
vt 0.2961 0.0579
vt 0.0055 0.0524
vt 0.8086 0.0472
vt 0.8251 0.0871
vt 0.8251 0.1303
vt 0.8086 0.1702
vt 0.7781 0.2007
vt 0.7382 0.2172
vt 0.6950 0.2172
vt 0.6551 0.2007
vt 0.6246 0.1702
vt 0.6080 0.1303
vt 0.6080 0.0871
vt 0.6246 0.0472
vt 0.6551 0.0167
vt 0.6950 0.0001
vt 0.7382 0.0001
vt 0.7781 0.0167
vt 0.5698 0.0100
vt 0.6077 0.0167
vt 0.2659 0.0100
vt 0.3038 0.0167
vt 0.5322 0.0051
vt 0.2283 0.0051
vt 0.4948 0.0019
vt 0.1909 0.0019
vt 0.4573 0.0003
vt 0.1534 0.0003
vt 0.4196 0.0001
vt 0.1157 0.0001
vt 0.3815 0.0017
vt 0.0389 0.0052
vt 0.0775 0.0017
vt 0.0001 0.0102
vn 0.1951 0.0000 -0.9808
vn 0.5556 0.0000 -0.8315
vn 0.8315 0.0000 -0.5556
vn 0.9808 0.0000 -0.1951
vn 0.9808 -0.0000 0.1951
vn 0.8315 -0.0000 0.5556
vn 0.5556 -0.0000 0.8315
vn 0.1951 -0.0000 0.9808
vn -0.1951 -0.0000 0.9808
vn -0.5556 -0.0000 0.8315
vn -0.8315 -0.0000 0.5556
vn -0.9808 -0.0000 0.1951
vn -0.9808 0.0000 -0.1951
vn -0.8315 0.0000 -0.5556
vn 0.0000 1.0000 0.0000
vn -0.5556 0.0000 -0.8315
vn -0.1951 0.0000 -0.9808
vn 0.8675 0.4666 0.1726
vn -0.4914 0.4666 0.7354
vn -0.4914 0.4666 -0.7354
vn 0.7354 0.4666 -0.4914
vn 0.1726 0.4666 0.8675
vn 0.1726 0.4666 -0.8675
vn -0.8675 0.4666 -0.1726
vn 0.7354 0.4666 0.4914
vn -0.7354 0.4666 0.4914
vn -0.1726 0.4666 -0.8675
vn 0.8675 0.4666 -0.1726
vn -0.1726 0.4666 0.8675
vn -0.7354 0.4666 -0.4914
vn 0.4914 0.4666 -0.7354
vn 0.4914 0.4666 0.7354
vn -0.8675 0.4666 0.1726
vn 0.0000 -1.0000 -0.0000
usemtl None
s 1
f 1/1/1 2/2/1 3/3/1 4/4/1
f 4/4/2 3/3/2 5/5/2 6/6/2
f 6/7/3 5/8/3 7/9/3 8/10/3
f 8/10/4 7/9/4 9/11/4 10/12/4
f 10/12/5 9/11/5 11/13/5 12/14/5
f 12/14/6 11/13/6 13/15/6 14/16/6
f 14/16/7 13/15/7 15/17/7 16/18/7
f 16/18/8 15/17/8 17/19/8 18/20/8
f 18/20/9 17/19/9 19/21/9 20/22/9
f 20/22/10 19/21/10 21/23/10 22/24/10
f 22/25/11 21/26/11 23/27/11 24/28/11
f 24/28/12 23/27/12 25/29/12 26/30/12
f 26/30/13 25/29/13 27/31/13 28/32/13
f 28/32/14 27/31/14 29/33/14 30/34/14
f 3/35/15 2/36/15 31/37/15 29/38/15 27/39/15 25/40/15 23/41/15 21/42/15 19/43/15 17/44/15 15/45/15 13/46/15 11/47/15 9/48/15 7/49/15 5/50/15
f 30/34/16 29/33/16 31/51/16 32/52/16
f 32/52/17 31/51/17 2/2/17 1/1/17
f 10/12/18 12/14/18 33/53/18 34/54/18
f 35/55/10 36/56/10 37/57/10 38/58/10
f 20/22/19 22/24/19 36/56/19 35/55/19
f 30/34/20 32/52/20 39/59/20 40/60/20
f 6/7/21 8/10/21 41/61/21 42/62/21
f 16/18/22 18/20/22 43/63/22 44/64/22
f 1/1/23 4/4/23 45/65/23 46/66/23
f 26/30/24 28/32/24 47/67/24 48/68/24
f 12/14/25 14/16/25 49/69/25 33/53/25
f 22/25/26 24/28/26 50/70/26 36/71/26
f 32/52/27 1/1/27 46/66/27 39/59/27
f 8/10/28 10/12/28 34/54/28 41/61/28
f 18/20/29 20/22/29 35/55/29 43/63/29
f 28/32/30 30/34/30 40/60/30 47/67/30
f 4/4/31 6/6/31 42/72/31 45/65/31
f 14/16/32 16/18/32 44/64/32 49/69/32
f 24/28/33 26/30/33 48/68/33 50/70/33
f 51/73/34 52/74/34 53/75/34 54/76/34 55/77/34 56/78/34 57/79/34 58/80/34 59/81/34 38/82/34 37/83/34 60/84/34 61/85/34 62/86/34 63/87/34 64/88/34
f 42/62/3 41/61/3 54/89/3 53/90/3
f 36/71/11 50/70/11 60/91/11 37/92/11
f 41/61/4 34/54/4 55/93/4 54/89/4
f 50/70/12 48/68/12 61/94/12 60/91/12
f 34/54/5 33/53/5 56/95/5 55/93/5
f 48/68/13 47/67/13 62/96/13 61/94/13
f 33/53/6 49/69/6 57/97/6 56/95/6
f 47/67/14 40/60/14 63/98/14 62/96/14
f 49/69/7 44/64/7 58/99/7 57/97/7
f 40/60/16 39/59/16 64/100/16 63/98/16
f 44/64/8 43/63/8 59/101/8 58/99/8
f 46/66/1 45/65/1 52/102/1 51/103/1
f 39/59/17 46/66/17 51/103/17 64/100/17
f 43/63/9 35/55/9 38/58/9 59/101/9
f 45/65/2 42/72/2 53/104/2 52/102/2
o Cube.002_Cube.010
v -2.000001 0.500000 2.000000
v -2.000001 5.500000 2.000000
v -2.500001 5.500000 2.000000
v -2.500000 0.500000 5.000000
v -2.500000 5.500000 5.000000
v -2.500001 0.500000 2.000000
v -2.000000 5.500000 5.000000
v -2.000000 0.500000 5.000000
v -2.000001 0.500000 2.500000
v -2.000001 5.500000 2.500000
v -2.000001 5.500000 1.999999
v -5.000001 0.500000 2.000001
v -5.000001 5.500000 2.000001
v -2.000001 0.500000 1.999999
v -5.000001 5.500000 2.500001
v -5.000001 0.500000 2.500001
v -4.500000 0.500000 -5.000000
v -4.500000 5.500000 -5.000000
v -5.000000 5.500000 -4.999999
v -5.000000 0.500000 -2.000000
v -5.000000 5.500000 -2.000000
v -5.000000 0.500000 -4.999999
v -4.500000 5.500000 -2.000000
v -4.500000 0.500000 -2.000000
v 2.000000 0.500000 2.000001
v 2.000000 5.500000 2.000001
v 2.000000 5.500000 2.500001
v 5.000000 0.500000 2.500000
v 5.000000 5.500000 2.500000
v 2.000000 0.500000 2.500001
v 4.999999 5.500000 2.000000
v 4.999999 0.500000 2.000000
v 2.000000 0.500000 -1.999999
v 2.000000 5.500000 -1.999999
v 2.500000 5.500000 -1.999999
v 2.500000 0.500000 -4.999999
v 2.500000 5.500000 -4.999999
v 2.500000 0.500000 -1.999999
v 2.000000 5.500000 -5.000000
v 2.000000 0.500000 -5.000000
v 2.000000 5.500000 2.000000
v 2.500000 0.500000 2.000000
v 2.000000 0.500000 2.000000
v 2.500000 5.500000 2.000000
v 2.500000 5.500000 5.000000
v 2.000000 0.500000 5.000000
v 2.000000 5.500000 5.000000
v 2.500000 0.500000 5.000000
v -5.000000 5.500000 -4.500000
v -5.000000 0.500000 -4.999999
v -5.000000 0.500000 -4.500000
v -5.000000 5.500000 -4.999999
v -2.000000 5.500000 -5.000000
v -2.000000 0.500000 -4.500000
v -2.000000 5.500000 -4.500000
v -2.000000 0.500000 -5.000000
v 2.000000 0.500000 -2.499999
v 2.000000 5.500000 -2.499999
v 2.000000 5.500000 -1.999999
v 5.000000 0.500000 -2.000000
v 5.000000 5.500000 -2.000000
v 2.000000 0.500000 -1.999999
v 5.000000 5.500000 -2.500000
v 5.000000 0.500000 -2.500000
vn 0.0000 1.0000 0.0000
vn 1.0000 0.0000 0.0000
vn 0.0000 -1.0000 0.0000
vn 0.0000 0.0000 -1.0000
vn -1.0000 0.0000 0.0000
vn 0.0000 0.0000 1.0000
usemtl None
s off
f 66//35 67//35 69//35 71//35
f 82//36 87//36 88//36 81//36
f 94//37 89//37 96//37 92//37
f 67//38 66//38 65//38 70//38
f 70//39 68//39 69//39 67//39
f 69//40 68//40 72//40 71//40
f 74//35 75//35 77//35 79//35
f 111//39 105//39 107//39 110//39
f 90//38 95//38 96//38 89//38
f 75//36 74//36 73//36 78//36
f 78//38 76//38 77//38 75//38
f 77//39 76//39 80//39 79//39
f 82//35 83//35 85//35 87//35
f 120//37 118//37 115//37 114//37
f 112//37 110//37 107//37 106//37
f 83//38 82//38 81//38 86//38
f 86//39 84//39 85//39 83//39
f 85//40 84//40 88//40 87//40
f 90//35 91//35 93//35 95//35
f 102//37 97//37 104//37 100//37
f 70//37 65//37 72//37 68//37
f 91//39 90//39 89//39 94//39
f 94//40 92//40 93//40 91//40
f 93//36 92//36 96//36 95//36
f 98//35 99//35 101//35 103//35
f 119//40 113//40 115//40 118//40
f 74//40 79//40 80//40 73//40
f 99//40 98//40 97//40 102//40
f 102//36 100//36 101//36 99//36
f 101//38 100//38 104//38 103//38
f 111//35 109//35 108//35 105//35
f 126//37 121//37 128//37 124//37
f 116//38 117//38 120//38 114//38
f 107//38 105//38 108//38 106//38
f 111//40 110//40 112//40 109//40
f 119//35 117//35 116//35 113//35
f 108//36 109//36 112//36 106//36
f 86//37 81//37 88//37 84//37
f 66//36 71//36 72//36 65//36
f 115//39 113//39 116//39 114//39
f 119//36 118//36 120//36 117//36
f 122//35 123//35 125//35 127//35
f 78//37 73//37 80//37 76//37
f 98//39 103//39 104//39 97//39
f 123//39 122//39 121//39 126//39
f 126//40 124//40 125//40 123//40
f 125//36 124//36 128//36 127//36
f 122//38 127//38 128//38 121//38
o Cube
v 4.999998 -0.500000 -4.999997
v 4.999998 -0.500000 4.999998
v -4.999998 -0.500000 4.999997
v -4.999996 -0.500000 -5.000000
v 5.000000 0.500000 -4.999995
v 4.999994 0.500000 5.000000
v -5.000000 0.500000 4.999996
v -4.999997 0.500000 -4.999998
vn 0.0000 -1.0000 -0.0000
vn 0.0000 1.0000 0.0000
vn 1.0000 0.0000 0.0000
vn -0.0000 -0.0000 1.0000
vn -1.0000 -0.0000 -0.0000
vn 0.0000 0.0000 -1.0000
usemtl Material
s off
f 129//41 130//41 131//41 132//41
f 133//42 136//42 135//42 134//42
f 129//43 133//43 134//43 130//43
f 130//44 134//44 135//44 131//44
f 131//45 135//45 136//45 132//45
f 133//46 129//46 132//46 136//46
